<?xml version="1.0" encoding="UTF-8"?>
<svg id="Layer_3" data-name="Layer 3" xmlns="http://www.w3.org/2000/svg" xmlns:xlink="http://www.w3.org/1999/xlink" viewBox="0 0 448.11 465.16">
  <defs>
    <style>
      .cls-1 {
        fill: url(#linear-gradient-2);
      }

      .cls-2 {
        fill: #59544f;
      }

      .cls-3 {
        fill: #3f3c39;
      }

      .cls-4 {
        clip-path: url(#clippath-2);
      }

      .cls-5 {
        opacity: .22;
      }

      .cls-5, .cls-6 {
        fill: #cc9212;
      }

      .cls-7 {
        clip-path: url(#clippath-6);
      }

      .cls-8 {
        fill: #756f68;
      }

      .cls-9 {
        clip-path: url(#clippath-7);
      }

      .cls-10 {
        clip-path: url(#clippath-1);
      }

      .cls-11 {
        clip-path: url(#clippath-4);
      }

      .cls-12 {
        fill: #fccc00;
      }

      .cls-13 {
        fill: #f786ae;
      }

      .cls-14 {
        clip-path: url(#clippath);
      }

      .cls-15 {
        fill: none;
      }

      .cls-16 {
        clip-path: url(#clippath-3);
      }

      .cls-17 {
        fill: #fcdba2;
      }

      .cls-18 {
        clip-path: url(#clippath-8);
      }

      .cls-19 {
        fill: #382b17;
      }

      .cls-6 {
        opacity: .51;
      }

      .cls-20 {
        clip-path: url(#clippath-5);
      }

      .cls-21 {
        fill: url(#linear-gradient);
      }
    </style>
    <clipPath id="clippath">
      <path class="cls-15" d="m282.21,351.32l21.31-7.54,4.87-33.06-43.76-51.59-.68-.16,9.21,81.84,9.05,10.52Z"/>
    </clipPath>
    <clipPath id="clippath-1">
      <path class="cls-15" d="m186.35,240.15l-12.57,13.6c8.41,3.46,16.07,11.48,14.06,29.58-1.65,14.81-7.81,27.9-14.94,38.57l1.23-.09,43.18-46.05.03-1.34-29.48-34.24-1.49-.03Z"/>
    </clipPath>
    <clipPath id="clippath-2">
      <path class="cls-15" d="m281.06,137.8l-.19.05-61.43,66.48-.4,2.59,29.1,34.3,1.49.04,42.13-44.93-10.7-58.53Z"/>
    </clipPath>
    <clipPath id="clippath-3">
      <path class="cls-15" d="m219.52,204.92h-.16s0,0,0,0l-.31,2-.95-1.13-31.74,34.35-.02,1.33,29.48,34.24,1.49.03,32.34-34.49.03-1.33-29.4-34.66-.74-.35Z"/>
    </clipPath>
    <clipPath id="clippath-4">
      <path class="cls-15" d="m217.76,215.19c-2.75-.49-5.77-.73-9.07-.7l-22.32,24.16-.02,1.33,30.8,35.77,1.49.03,30.96-33.02.03-1.33-30.38-35.82-1.48,9.57Z"/>
    </clipPath>
    <clipPath id="clippath-5">
      <path class="cls-15" d="m249.62,241.43l-1.49-.04-30.96,33.02-.03,1.34,37.16,43.16.35.1,7.09-63.29-12.13-14.29Z"/>
    </clipPath>
    <clipPath id="clippath-6">
      <path class="cls-15" d="m196.82,215.62s7.69-7.06,15.38-18.3l-32.84-38.71-1.19-.16c1.62,2.74,2.99,6.36,3.94,11.11,3.66,18.35-9.22,34.78-18.56,43.94l22.8,26.48,1.49.03,23.55-25.49c-4.31-.16-9.14.17-14.56,1.1Z"/>
    </clipPath>
    <linearGradient id="linear-gradient" x1="188.16" y1="267.81" x2="355.63" y2="267.81" gradientUnits="userSpaceOnUse">
      <stop offset="0" stop-color="#893ed1"/>
      <stop offset=".15" stop-color="#6b58d7"/>
      <stop offset=".48" stop-color="#318ce4"/>
      <stop offset=".73" stop-color="#0dacec"/>
      <stop offset=".86" stop-color="#00b9ef"/>
    </linearGradient>
    <linearGradient id="linear-gradient-2" x1="112.4" y1="249.91" x2="243.98" y2="249.91" xlink:href="#linear-gradient"/>
    <clipPath id="clippath-7">
      <path class="cls-15" d="m24.41,15.53v443.1h404.73V15.53H24.41Zm225.21,225.74l-32.34,34.49-43.18,46.05-1.23.09c7.14-10.66,13.29-23.76,14.94-38.57,2.02-18.09-5.64-26.11-14.06-29.58l12.57-13.6,31.74-34.35.95,1.13.31-2h0l.09-.59,61.43-66.48.19-.05,10.7,58.53-42.13,44.93Z"/>
    </clipPath>
    <clipPath id="clippath-8">
      <path class="cls-15" d="m11.81.08v465h407.47V.08H11.81Zm242.85,318.94l-.35-.1-37.16-43.16-30.8-35.77-22.8-26.48c9.34-9.16,22.22-25.58,18.56-43.94-.95-4.75-2.32-8.37-3.94-11.11l1.19.16,32.84,38.71c-7.69,11.24-15.38,18.3-15.38,18.3,4.33-.74,8.26-1.09,11.86-1.13h0c.63-.01,1.24,0,1.84.01.28,0,.58,0,.85,0h-.01c2.27.1,4.4.32,6.39.67l1.48-9.57,30.38,35.82,12.13,14.29-7.09,63.29Zm48.85,24.76l-21.31,7.54-9.05-10.52-9.21-81.84.68.16,43.76,51.59-4.87,33.06Z"/>
    </clipPath>
  </defs>
  <g class="cls-14">
    <g>
      <rect class="cls-3" x="42.39" y="2.83" width="25.51" height="88.9" transform="translate(-17.48 45.99) rotate(-39.59)"/>
      <ellipse class="cls-13" cx="26.82" cy="13.03" rx="16.61" ry="3.64" transform="translate(-2.15 20.08) rotate(-39.59)"/>
      <g>
        <polygon class="cls-12" points="70.59 103.98 325.17 399.69 417.28 463.08 355.72 368.06 105.56 73.14 70.59 103.98"/>
        <polygon class="cls-6" points="325.17 399.69 320.41 361.26 88.33 88.34 70.59 103.98 325.17 399.69"/>
        <polygon class="cls-5" points="417.28 463.08 355.72 368.06 320.41 361.26 325.17 399.69 417.28 463.08"/>
        <g>
          <path class="cls-2" d="m40.62,141.5s9.15-21.76,48.17-53.07l-7.11-9.19s-44.19,31.93-41.06,62.26Z"/>
          <path class="cls-8" d="m147.3,47.11s-22.71,6.41-58.57,41.3l-8.25-8.18s37.1-39.95,66.82-33.12Z"/>
        </g>
      </g>
    </g>
  </g>
  <g class="cls-10">
    <g>
      <g>
        <g>
          <polygon class="cls-12" points="343.71 71.31 78.9 357.9 26.41 456.63 113.81 384.65 378.32 102.54 343.71 71.31"/>
          <path class="cls-17" d="m78.9,357.9s9.5,1.33,12.29,11.08c2.78,9.75,11.59,9.53,11.59,9.53,0,0,10.63-.89,11.03,6.14l-87.39,71.98,52.49-98.73Z"/>
          <path class="cls-19" d="m26.41,456.63l24.03-19.79s-5.78.61-9.11-8.27l-14.92,28.07Z"/>
          <polygon class="cls-8" points="343.86 71.22 377.99 102.46 410.69 67.58 376.08 36.35 343.86 71.22"/>
          <path class="cls-13" d="m376.08,36.35l34.62,31.23,12.55-13.39c5.37-5.73,5.16-14.7-.47-20.17l-12.78-12.42c-5.78-5.61-15.03-5.4-20.54.48l-13.38,14.27Z"/>
        </g>
        <path class="cls-6" d="m94.22,374.63L361.47,87.34l-17.61-16.12L78.9,357.9s8.3.54,15.32,16.73Z"/>
      </g>
      <polygon class="cls-2" points="361.47 87.34 393.83 52.46 376.08 36.35 343.86 71.22 361.47 87.34"/>
    </g>
  </g>
  <g class="cls-4">
    <g>
      <g>
        <g>
          <polygon class="cls-12" points="343.71 71.31 78.9 357.9 26.41 456.63 113.81 384.65 378.32 102.54 343.71 71.31"/>
          <path class="cls-17" d="m78.9,357.9s9.5,1.33,12.29,11.08c2.78,9.75,11.59,9.53,11.59,9.53,0,0,10.63-.89,11.03,6.14l-87.39,71.98,52.49-98.73Z"/>
          <path class="cls-19" d="m26.41,456.63l24.03-19.79s-5.78.61-9.11-8.27l-14.92,28.07Z"/>
          <polygon class="cls-8" points="343.86 71.22 377.99 102.46 410.69 67.58 376.08 36.35 343.86 71.22"/>
          <path class="cls-13" d="m376.08,36.35l34.62,31.23,12.55-13.39c5.37-5.73,5.16-14.7-.47-20.17l-12.78-12.42c-5.78-5.61-15.03-5.4-20.54.48l-13.38,14.27Z"/>
        </g>
        <path class="cls-6" d="m94.22,374.63L361.47,87.34l-17.61-16.12L78.9,357.9s8.3.54,15.32,16.73Z"/>
      </g>
      <polygon class="cls-2" points="361.47 87.34 393.83 52.46 376.08 36.35 343.86 71.22 361.47 87.34"/>
    </g>
  </g>
  <g>
    <g class="cls-16">
      <g>
        <g>
          <g>
            <polygon class="cls-12" points="343.71 71.31 78.9 357.9 26.41 456.63 113.81 384.65 378.32 102.54 343.71 71.31"/>
            <path class="cls-17" d="m78.9,357.9s9.5,1.33,12.29,11.08c2.78,9.75,11.59,9.53,11.59,9.53,0,0,10.63-.89,11.03,6.14l-87.39,71.98,52.49-98.73Z"/>
            <path class="cls-19" d="m26.41,456.63l24.03-19.79s-5.78.61-9.11-8.27l-14.92,28.07Z"/>
            <polygon class="cls-8" points="343.86 71.22 377.99 102.46 410.69 67.58 376.08 36.35 343.86 71.22"/>
            <path class="cls-13" d="m376.08,36.35l34.62,31.23,12.55-13.39c5.37-5.73,5.16-14.7-.47-20.17l-12.78-12.42c-5.78-5.61-15.03-5.4-20.54.48l-13.38,14.27Z"/>
          </g>
          <path class="cls-6" d="m94.22,374.63L361.47,87.34l-17.61-16.12L78.9,357.9s8.3.54,15.32,16.73Z"/>
        </g>
        <polygon class="cls-2" points="361.47 87.34 393.83 52.46 376.08 36.35 343.86 71.22 361.47 87.34"/>
      </g>
    </g>
    <g class="cls-11">
      <g>
        <rect class="cls-3" x="42.39" y="2.83" width="25.51" height="88.9" transform="translate(-17.48 45.99) rotate(-39.59)"/>
        <ellipse class="cls-13" cx="26.82" cy="13.03" rx="16.61" ry="3.64" transform="translate(-2.15 20.08) rotate(-39.59)"/>
        <g>
          <polygon class="cls-12" points="70.59 103.98 325.17 399.69 417.28 463.08 355.72 368.06 105.56 73.14 70.59 103.98"/>
          <polygon class="cls-6" points="325.17 399.69 320.41 361.26 88.33 88.34 70.59 103.98 325.17 399.69"/>
          <polygon class="cls-5" points="417.28 463.08 355.72 368.06 320.41 361.26 325.17 399.69 417.28 463.08"/>
          <g>
            <path class="cls-2" d="m40.62,141.5s9.15-21.76,48.17-53.07l-7.11-9.19s-44.19,31.93-41.06,62.26Z"/>
            <path class="cls-8" d="m147.3,47.11s-22.71,6.41-58.57,41.3l-8.25-8.18s37.1-39.95,66.82-33.12Z"/>
          </g>
        </g>
      </g>
    </g>
  </g>
  <g class="cls-20">
    <g>
      <rect class="cls-3" x="42.39" y="2.83" width="25.51" height="88.9" transform="translate(-17.48 45.99) rotate(-39.59)"/>
      <ellipse class="cls-13" cx="26.82" cy="13.03" rx="16.61" ry="3.64" transform="translate(-2.15 20.08) rotate(-39.59)"/>
      <g>
        <polygon class="cls-12" points="70.59 103.98 325.17 399.69 417.28 463.08 355.72 368.06 105.56 73.14 70.59 103.98"/>
        <polygon class="cls-6" points="325.17 399.69 320.41 361.26 88.33 88.34 70.59 103.98 325.17 399.69"/>
        <polygon class="cls-5" points="417.28 463.08 355.72 368.06 320.41 361.26 325.17 399.69 417.28 463.08"/>
        <g>
          <path class="cls-2" d="m40.62,141.5s9.15-21.76,48.17-53.07l-7.11-9.19s-44.19,31.93-41.06,62.26Z"/>
          <path class="cls-8" d="m147.3,47.11s-22.71,6.41-58.57,41.3l-8.25-8.18s37.1-39.95,66.82-33.12Z"/>
        </g>
      </g>
    </g>
  </g>
  <g class="cls-7">
    <g>
      <rect class="cls-3" x="42.39" y="2.83" width="25.51" height="88.9" transform="translate(-17.48 45.99) rotate(-39.59)"/>
      <ellipse class="cls-13" cx="26.82" cy="13.03" rx="16.61" ry="3.64" transform="translate(-2.15 20.08) rotate(-39.59)"/>
      <g>
        <polygon class="cls-12" points="70.59 103.98 325.17 399.69 417.28 463.08 355.72 368.06 105.56 73.14 70.59 103.98"/>
        <polygon class="cls-6" points="325.17 399.69 320.41 361.26 88.33 88.34 70.59 103.98 325.17 399.69"/>
        <polygon class="cls-5" points="417.28 463.08 355.72 368.06 320.41 361.26 325.17 399.69 417.28 463.08"/>
        <g>
          <path class="cls-2" d="m40.62,141.5s9.15-21.76,48.17-53.07l-7.11-9.19s-44.19,31.93-41.06,62.26Z"/>
          <path class="cls-8" d="m147.3,47.11s-22.71,6.41-58.57,41.3l-8.25-8.18s37.1-39.95,66.82-33.12Z"/>
        </g>
      </g>
    </g>
  </g>
  <polygon class="cls-21" points="298.58 233.64 276.75 114.22 235.19 102.28 188.16 406.93 241.85 433.34 262.66 247.57 274.64 354 303.51 343.77 317.6 248.24 314.78 378.27 349.29 347.76 355.63 148.06 330.98 142.24 298.58 233.64"/>
  <path class="cls-1" d="m196.82,215.62s50.97-46.81,21.71-91.3-99.06,27.16-99.06,27.16l-7.08,194.17v42.47s72.8,23.77,124.85-94.94c0,0,31.11-89.83-40.43-77.56Zm-40.63-62.89s20.33-11.21,25.92,16.83c5.59,28.04-27.43,51.58-27.43,51.58l1.51-68.41Zm-11.02,198.82l9.92-100.02s36.9-5.47,32.74,31.8c-4.51,40.5-42.66,68.22-42.66,68.22Z"/>
  <g class="cls-9">
    <g>
      <g>
        <g>
          <polygon class="cls-12" points="343.71 71.31 78.9 357.9 26.41 456.63 113.81 384.65 378.32 102.54 343.71 71.31"/>
          <path class="cls-17" d="m78.9,357.9s9.5,1.33,12.29,11.08c2.78,9.75,11.59,9.53,11.59,9.53,0,0,10.63-.89,11.03,6.14l-87.39,71.98,52.49-98.73Z"/>
          <path class="cls-19" d="m26.41,456.63l24.03-19.79s-5.78.61-9.11-8.27l-14.92,28.07Z"/>
          <polygon class="cls-8" points="343.86 71.22 377.99 102.46 410.69 67.58 376.08 36.35 343.86 71.22"/>
          <path class="cls-13" d="m376.08,36.35l34.62,31.23,12.55-13.39c5.37-5.73,5.16-14.7-.47-20.17l-12.78-12.42c-5.78-5.61-15.03-5.4-20.54.48l-13.38,14.27Z"/>
        </g>
        <path class="cls-6" d="m94.22,374.63L361.47,87.34l-17.61-16.12L78.9,357.9s8.3.54,15.32,16.73Z"/>
      </g>
      <polygon class="cls-2" points="361.47 87.34 393.83 52.46 376.08 36.35 343.86 71.22 361.47 87.34"/>
    </g>
  </g>
  <g class="cls-18">
    <g>
      <rect class="cls-3" x="42.39" y="2.83" width="25.51" height="88.9" transform="translate(-17.48 45.99) rotate(-39.59)"/>
      <ellipse class="cls-13" cx="26.82" cy="13.03" rx="16.61" ry="3.64" transform="translate(-2.15 20.08) rotate(-39.59)"/>
      <g>
        <polygon class="cls-12" points="70.59 103.98 325.17 399.69 417.28 463.08 355.72 368.06 105.56 73.14 70.59 103.98"/>
        <polygon class="cls-6" points="325.17 399.69 320.41 361.26 88.33 88.34 70.59 103.98 325.17 399.69"/>
        <polygon class="cls-5" points="417.28 463.08 355.72 368.06 320.41 361.26 325.17 399.69 417.28 463.08"/>
        <g>
          <path class="cls-2" d="m40.62,141.5s9.15-21.76,48.17-53.07l-7.11-9.19s-44.19,31.93-41.06,62.26Z"/>
          <path class="cls-8" d="m147.3,47.11s-22.71,6.41-58.57,41.3l-8.25-8.18s37.1-39.95,66.82-33.12Z"/>
        </g>
      </g>
    </g>
  </g>
</svg>